<svg width="800" height="380" viewBox="0 0 800 380" fill="none" xmlns="http://www.w3.org/2000/svg">
    <defs>
        <linearGradient id="bgGrad" x1="0%" y1="0%" x2="100%" y2="100%">
            <stop offset="0%" stop-color="#0B0F19"/>
            <stop offset="50%" stop-color="#0F172A"/>
            <stop offset="100%" stop-color="#090D16"/>
        </linearGradient>
        <linearGradient id="accentBorder" x1="0%" y1="0%" x2="100%" y2="0%">
            <stop offset="0%" stop-color="#06B6D4"/>
            <stop offset="50%" stop-color="#6366F1"/>
            <stop offset="100%" stop-color="#A855F7"/>
        </linearGradient>
        <linearGradient id="sparkGrad" x1="0%" y1="100%" x2="0%" y2="0%">
            <stop offset="0%" stop-color="#06B6D4"/>
            <stop offset="100%" stop-color="#818CF8"/>
        </linearGradient>
        <linearGradient id="statCardGrad" x1="0%" y1="0%" x2="100%" y2="100%">
            <stop offset="0%" stop-color="#1E293B" stop-opacity="0.7"/>
            <stop offset="100%" stop-color="#0F172A" stop-opacity="0.8"/>
        </linearGradient>
        <filter id="glow" x="-20%" y="-20%" width="140%" height="140%">
            <feGaussianBlur stdDeviation="3" result="blur" />
            <feComposite in="SourceGraphic" in2="blur" operator="over"/>
        </filter>
    </defs>

    <!-- Background Card -->
    <rect x="2" y="2" width="796" height="376" rx="14" fill="url(#bgGrad)" stroke="#1E293B" stroke-width="1.5"/>
    <rect x="2" y="2" width="796" height="3" rx="1.5" fill="url(#accentBorder)"/>

    <!-- Terminal Header Bar -->
    <g transform="translate(24, 22)">
        <circle cx="8" cy="8" r="5" fill="#EF4444"/>
        <circle cx="26" cy="8" r="5" fill="#F59E0B"/>
        <circle cx="44" cy="8" r="5" fill="#10B981"/>
        
        <text x="68" y="12" fill="#F8FAFC" font-family="'JetBrains Mono', 'Segoe UI', monospace" font-size="13" font-weight="700" letter-spacing="0.5">
            SANDRO AAA — ENGINEERING &amp; ARCHITECTURE
        </text>

        <rect x="635" y="0" width="115" height="18" rx="9" fill="#10B981" fill-opacity="0.12" stroke="#10B981" stroke-opacity="0.3"/>
        <circle cx="648" cy="9" r="3.5" fill="#10B981"/>
        <text x="658" y="13" fill="#34D399" font-family="'JetBrains Mono', monospace" font-size="10" font-weight="600">AUTO-SYNC</text>
    </g>

    <line x1="20" y1="52" x2="780" y2="52" stroke="#1E293B" stroke-width="1"/>

    <!-- Left Column: Metrics & Activity -->
    <!-- Metric Cards -->
    <g transform="translate(24, 66)">
        <!-- Stat 1: Repositories -->
        <rect x="0" y="0" width="112" height="62" rx="8" fill="url(#statCardGrad)" stroke="#334155" stroke-width="1"/>
        <text x="14" y="22" fill="#94A3B8" font-family="'JetBrains Mono', monospace" font-size="9" font-weight="600" letter-spacing="0.5">REPOSITORIES</text>
        <text x="14" y="48" fill="#F8FAFC" font-family="'JetBrains Mono', monospace" font-size="22" font-weight="800">42</text>

        <!-- Stat 2: Followers -->
        <rect x="122" y="0" width="112" height="62" rx="8" fill="url(#statCardGrad)" stroke="#334155" stroke-width="1"/>
        <text x="136" y="22" fill="#94A3B8" font-family="'JetBrains Mono', monospace" font-size="9" font-weight="600" letter-spacing="0.5">FOLLOWERS</text>
        <text x="136" y="48" fill="#38BDF8" font-family="'JetBrains Mono', monospace" font-size="22" font-weight="800">630</text>

        <!-- Stat 3: Total Stars -->
        <rect x="244" y="0" width="112" height="62" rx="8" fill="url(#statCardGrad)" stroke="#334155" stroke-width="1"/>
        <text x="258" y="22" fill="#94A3B8" font-family="'JetBrains Mono', monospace" font-size="9" font-weight="600" letter-spacing="0.5">STARS / FORKS</text>
        <text x="258" y="48" fill="#FBBF24" font-family="'JetBrains Mono', monospace" font-size="22" font-weight="800">★ 8</text>
    </g>

    <!-- Activity Stream Header -->
    <text x="26" y="160" fill="#64748B" font-family="'JetBrains Mono', monospace" font-size="10" font-weight="700" letter-spacing="1">
        RECENT ACTIVITY STREAM
    </text>
    <line x1="190" y1="156" x2="380" y2="156" stroke="#1E293B" stroke-width="1"/>

    <!-- Sparkline Bars -->
    <g>
        <rect x="30" y="225" width="16" height="5" rx="3" fill="url(#sparkGrad)" opacity="0.52"/><rect x="52" y="225" width="16" height="5" rx="3" fill="url(#sparkGrad)" opacity="0.52"/><rect x="74" y="225" width="16" height="5" rx="3" fill="url(#sparkGrad)" opacity="0.52"/><rect x="96" y="225" width="16" height="5" rx="3" fill="url(#sparkGrad)" opacity="0.52"/><rect x="118" y="225" width="16" height="5" rx="3" fill="url(#sparkGrad)" opacity="0.52"/><rect x="140" y="225" width="16" height="5" rx="3" fill="url(#sparkGrad)" opacity="0.52"/><rect x="162" y="225" width="16" height="5" rx="3" fill="url(#sparkGrad)" opacity="0.52"/><rect x="184" y="225" width="16" height="5" rx="3" fill="url(#sparkGrad)" opacity="0.52"/><rect x="206" y="225" width="16" height="5" rx="3" fill="url(#sparkGrad)" opacity="0.52"/><rect x="228" y="225" width="16" height="5" rx="3" fill="url(#sparkGrad)" opacity="0.52"/><rect x="250" y="225" width="16" height="5" rx="3" fill="url(#sparkGrad)" opacity="0.52"/><rect x="272" y="225" width="16" height="5" rx="3" fill="url(#sparkGrad)" opacity="0.52"/><rect x="294" y="225" width="16" height="5" rx="3" fill="url(#sparkGrad)" opacity="0.52"/><rect x="316" y="225" width="16" height="5" rx="3" fill="url(#sparkGrad)" opacity="0.52"/><rect x="338" y="225" width="16" height="5" rx="3" fill="url(#sparkGrad)" opacity="0.52"/><rect x="360" y="188" width="16" height="42" rx="3" fill="url(#sparkGrad)" opacity="1.00"/>
    </g>

    <text x="26" y="254" fill="#475569" font-family="'JetBrains Mono', monospace" font-size="9">
        ▁ ▂ ▃ ▅ ▇ █ ▅ ▃ ▇ █ ▆ ▅ ▇ █ ▆ ▃  (Continuous Pulse)
    </text>

    <!-- Vertical Divider -->
    <line x1="400" y1="65" x2="400" y2="265" stroke="#1E293B" stroke-width="1"/>

    <!-- Right Column: Technologies Breakdown -->
    <text x="420" y="90" fill="#64748B" font-family="'JetBrains Mono', monospace" font-size="10" font-weight="700" letter-spacing="1">
        STACK / TECHNOLOGIES
    </text>
    <line x1="570" y1="86" x2="774" y2="86" stroke="#1E293B" stroke-width="1"/>

    <!-- Tech Progress Bars -->
    
        <g transform="translate(420, 135)">
            <text x="0" y="10" fill="#94A3B8" font-family="'JetBrains Mono', 'Fira Code', monospace" font-size="11" font-weight="500">TypeScript</text>
            <rect x="120" y="2" width="180" height="8" rx="4" fill="#1E293B"/>
            <rect x="120" y="2" width="83" height="8" rx="4" fill="#3178C6"/>
            <text x="310" y="10" fill="#E2E8F0" font-family="'JetBrains Mono', monospace" font-size="10" font-weight="600">38%</text>
        </g>
        
        <g transform="translate(420, 157)">
            <text x="0" y="10" fill="#94A3B8" font-family="'JetBrains Mono', 'Fira Code', monospace" font-size="11" font-weight="500">Python</text>
            <rect x="120" y="2" width="180" height="8" rx="4" fill="#1E293B"/>
            <rect x="120" y="2" width="61" height="8" rx="4" fill="#3572A5"/>
            <text x="310" y="10" fill="#E2E8F0" font-family="'JetBrains Mono', monospace" font-size="10" font-weight="600">28%</text>
        </g>
        
        <g transform="translate(420, 179)">
            <text x="0" y="10" fill="#94A3B8" font-family="'JetBrains Mono', 'Fira Code', monospace" font-size="11" font-weight="500">Solidity</text>
            <rect x="120" y="2" width="180" height="8" rx="4" fill="#1E293B"/>
            <rect x="120" y="2" width="39" height="8" rx="4" fill="#AA6746"/>
            <text x="310" y="10" fill="#E2E8F0" font-family="'JetBrains Mono', monospace" font-size="10" font-weight="600">18%</text>
        </g>
        
        <g transform="translate(420, 201)">
            <text x="0" y="10" fill="#94A3B8" font-family="'JetBrains Mono', 'Fira Code', monospace" font-size="11" font-weight="500">Web3 / Motoko</text>
            <rect x="120" y="2" width="180" height="8" rx="4" fill="#1E293B"/>
            <rect x="120" y="2" width="22" height="8" rx="4" fill="#6366F1"/>
            <text x="310" y="10" fill="#E2E8F0" font-family="'JetBrains Mono', monospace" font-size="10" font-weight="600">10%</text>
        </g>
        
        <g transform="translate(420, 223)">
            <text x="0" y="10" fill="#94A3B8" font-family="'JetBrains Mono', 'Fira Code', monospace" font-size="11" font-weight="500">Go / Rust</text>
            <rect x="120" y="2" width="180" height="8" rx="4" fill="#1E293B"/>
            <rect x="120" y="2" width="13" height="8" rx="4" fill="#00ADD8"/>
            <text x="310" y="10" fill="#E2E8F0" font-family="'JetBrains Mono', monospace" font-size="10" font-weight="600">6%</text>
        </g>
        

    <!-- Bottom Section: Focus Area -->
    <line x1="20" y1="275" x2="780" y2="275" stroke="#1E293B" stroke-width="1"/>

    <g transform="translate(24, 292)">
        <text x="0" y="16" fill="#64748B" font-family="'JetBrains Mono', monospace" font-size="10" font-weight="700" letter-spacing="1">CORE FOCUS:</text>
        
        <!-- Focus Badges -->
        <rect x="90" y="2" width="72" height="22" rx="5" fill="#1E293B" stroke="#06B6D4" stroke-width="1" stroke-opacity="0.6"/>
        <text x="102" y="16" fill="#E2E8F0" font-family="'JetBrains Mono', monospace" font-size="10" font-weight="600">WEB3</text>

        <rect x="170" y="2" width="60" height="22" rx="5" fill="#1E293B" stroke="#818CF8" stroke-width="1" stroke-opacity="0.6"/>
        <text x="182" y="16" fill="#E2E8F0" font-family="'JetBrains Mono', monospace" font-size="10" font-weight="600">AI</text>

        <rect x="238" y="2" width="68" height="22" rx="5" fill="#1E293B" stroke="#A855F7" stroke-width="1" stroke-opacity="0.6"/>
        <text x="250" y="16" fill="#E2E8F0" font-family="'JetBrains Mono', monospace" font-size="10" font-weight="600">RWA</text>

        <rect x="314" y="2" width="102" height="22" rx="5" fill="#1E293B" stroke="#F59E0B" stroke-width="1" stroke-opacity="0.6"/>
        <text x="325" y="16" fill="#E2E8F0" font-family="'JetBrains Mono', monospace" font-size="10" font-weight="600">SPORTSTECH</text>

        <rect x="424" y="2" width="104" height="22" rx="5" fill="#1E293B" stroke="#10B981" stroke-width="1" stroke-opacity="0.6"/>
        <text x="435" y="16" fill="#E2E8F0" font-family="'JetBrains Mono', monospace" font-size="10" font-weight="600">AUTOMATION</text>
    </g>

    <!-- Footer Bar -->
    <g transform="translate(24, 355)">
        <text x="0" y="0" fill="#475569" font-family="'JetBrains Mono', monospace" font-size="9">
            ⚡ Automated via GitHub Actions (CRON: 0 3 * * *) • Last Sync: 2026-09-09 21:55 UTC
        </text>
        <text x="630" y="0" fill="#475569" font-family="'JetBrains Mono', monospace" font-size="9">
            ASPP-ARCH v2.0
        </text>
    </g>
</svg>
